HIERARCHY
ROOT Hips
{
  OFFSET 0 0.240689 0
  CHANNELS 6 Xposition Yposition Zposition Zrotation Xrotation Yrotation
  JOINT Bip01_Spine0
  {
    OFFSET 0 -24.7459 49.7988
    CHANNELS 6 Xposition Yposition Zposition Zrotation Xrotation Yrotation
    JOINT Bip01_Pelvis
    {
      OFFSET 0 0 0
      CHANNELS 6 Xposition Yposition Zposition Zrotation Xrotation Yrotation
      JOINT Bip01_Spine0_Tail
      {
        OFFSET -6.47486 -3.86022 0
        CHANNELS 6 Xposition Yposition Zposition Zrotation Xrotation Yrotation
        JOINT Bip01_Spine0_Tail1
        {
          OFFSET 10.3837 -0.00825882 0
          CHANNELS 6 Xposition Yposition Zposition Zrotation Xrotation Yrotation
          JOINT Bip01_Spine0_Tail2
          {
            OFFSET 10.3837 -0.00826263 0
            CHANNELS 6 Xposition Yposition Zposition Zrotation Xrotation Yrotation
            JOINT Bip01_Spine0_Tail3
            {
              OFFSET 10.3837 -0.00825882 0
              CHANNELS 6 Xposition Yposition Zposition Zrotation Xrotation Yrotation
              JOINT Bip01_Spine0_Tail4
              {
                OFFSET 10.3837 -0.00826263 0
                CHANNELS 6 Xposition Yposition Zposition Zrotation Xrotation Yrotation
                End Site
                {
                  OFFSET 0 0 0
                }
              }
            }
          }
        }
      }
      JOINT Bip01_R_Thigh
      {
        OFFSET 0 -1.52588e-005 -8.75617
        CHANNELS 6 Xposition Yposition Zposition Zrotation Xrotation Yrotation
        JOINT Bip01_R_Calf
        {
          OFFSET 19.7638 0 0
          CHANNELS 6 Xposition Yposition Zposition Zrotation Xrotation Yrotation
          JOINT Bip01_R_Foot
          {
            OFFSET 18.6534 0 0
            CHANNELS 6 Xposition Yposition Zposition Zrotation Xrotation Yrotation
            JOINT Bip01_R_Toe0
            {
              OFFSET 5.09145 13.9567 0
              CHANNELS 6 Xposition Yposition Zposition Zrotation Xrotation Yrotation
              JOINT Bip01_R_Toe01
              {
                OFFSET 4.28803 0 0
                CHANNELS 6 Xposition Yposition Zposition Zrotation Xrotation Yrotation
                JOINT Bip01_R_Toe02
                {
                  OFFSET 3.85801 0 0
                  CHANNELS 6 Xposition Yposition Zposition Zrotation Xrotation Yrotation
                  End Site
                  {
                    OFFSET 0 0 0
                  }
                }
              }
            }
          }
        }
      }
      JOINT Bip01_L_Thigh
      {
        OFFSET 0 1.52588e-005 8.75617
        CHANNELS 6 Xposition Yposition Zposition Zrotation Xrotation Yrotation
        JOINT Bip01_L_Calf
        {
          OFFSET 19.7638 0 0
          CHANNELS 6 Xposition Yposition Zposition Zrotation Xrotation Yrotation
          JOINT Bip01_L_Foot
          {
            OFFSET 18.6534 0 0
            CHANNELS 6 Xposition Yposition Zposition Zrotation Xrotation Yrotation
            JOINT Bip01_L_Toe0
            {
              OFFSET 5.09144 13.9567 0
              CHANNELS 6 Xposition Yposition Zposition Zrotation Xrotation Yrotation
              JOINT Bip01_L_Toe01
              {
                OFFSET 4.28802 0 0
                CHANNELS 6 Xposition Yposition Zposition Zrotation Xrotation Yrotation
                JOINT Bip01_L_Toe02
                {
                  OFFSET 3.85801 0 0
                  CHANNELS 6 Xposition Yposition Zposition Zrotation Xrotation Yrotation
                  End Site
                  {
                    OFFSET 0 0 0
                  }
                }
              }
            }
          }
        }
      }
      JOINT Bip01_Spine
      {
        OFFSET 9.14835 -0.00640869 -1.1e-005
        CHANNELS 6 Xposition Yposition Zposition Zrotation Xrotation Yrotation
        JOINT Bip01_Spine1
        {
          OFFSET 8.04366 -0.00638199 0
          CHANNELS 6 Xposition Yposition Zposition Zrotation Xrotation Yrotation
          JOINT Bip01_Spine2
          {
            OFFSET 8.04367 -0.00639343 0
            CHANNELS 6 Xposition Yposition Zposition Zrotation Xrotation Yrotation
            JOINT Bip01_Spine3
            {
              OFFSET 8.04304 -0.00831222 0
              CHANNELS 6 Xposition Yposition Zposition Zrotation Xrotation Yrotation
              JOINT Bip01_Neck
              {
                OFFSET 10.6685 1.06813 0
                CHANNELS 6 Xposition Yposition Zposition Zrotation Xrotation Yrotation
                JOINT Bip01_R_Clavicle
                {
                  OFFSET -3.21661 -4.89635 -9.04802
                  CHANNELS 6 Xposition Yposition Zposition Zrotation Xrotation Yrotation
                  JOINT Bip01_R_UpperArm
                  {
                    OFFSET 19.0492 0 0
                    CHANNELS 6 Xposition Yposition Zposition Zrotation Xrotation Yrotation
                    JOINT Bip01_R_Forearm
                    {
                      OFFSET 10.3706 0 0
                      CHANNELS 6 Xposition Yposition Zposition Zrotation Xrotation Yrotation
                      JOINT Bip01_R_Hand
                      {
                        OFFSET 22.8632 0 0
                        CHANNELS 6 Xposition Yposition Zposition Zrotation Xrotation Yrotation
                        JOINT Bip01_R_Finger0
                        {
                          OFFSET 6.48259 0.103651 0.504496
                          CHANNELS 6 Xposition Yposition Zposition Zrotation Xrotation Yrotation
                          JOINT Bip01_R_Finger01
                          {
                            OFFSET 3.66847 0 0
                            CHANNELS 6 Xposition Yposition Zposition Zrotation Xrotation Yrotation
                            End Site
                            {
                              OFFSET 0 0 0
                            }
                          }
                        }
                      }
                    }
                  }
                }
                JOINT Bip01_L_Clavicle
                {
                  OFFSET -3.21661 -4.89641 9.04797
                  CHANNELS 6 Xposition Yposition Zposition Zrotation Xrotation Yrotation
                  JOINT Bip01_L_UpperArm
                  {
                    OFFSET 19.0492 0 0
                    CHANNELS 6 Xposition Yposition Zposition Zrotation Xrotation Yrotation
                    JOINT Bip01_L_Forearm
                    {
                      OFFSET 10.3706 0 0
                      CHANNELS 6 Xposition Yposition Zposition Zrotation Xrotation Yrotation
                      JOINT Bip01_L_Hand
                      {
                        OFFSET 22.8631 0 0
                        CHANNELS 6 Xposition Yposition Zposition Zrotation Xrotation Yrotation
                        JOINT Bip01_L_Finger0
                        {
                          OFFSET 6.48257 0.103655 -0.504492
                          CHANNELS 6 Xposition Yposition Zposition Zrotation Xrotation Yrotation
                          JOINT Bip01_L_Finger01
                          {
                            OFFSET 3.66844 0 0
                            CHANNELS 6 Xposition Yposition Zposition Zrotation Xrotation Yrotation
                            End Site
                            {
                              OFFSET 0 0 0
                            }
                          }
                        }
                      }
                    }
                  }
                }
                JOINT Bip01_Neck1
                {
                  OFFSET 7.52459 -0.00656509 0
                  CHANNELS 6 Xposition Yposition Zposition Zrotation Xrotation Yrotation
                  JOINT Bip01_Neck2
                  {
                    OFFSET 8.4783 -0.00588226 0
                    CHANNELS 6 Xposition Yposition Zposition Zrotation Xrotation Yrotation
                    JOINT Bip01_Head
                    {
                      OFFSET 8.41606 0 0
                      CHANNELS 6 Xposition Yposition Zposition Zrotation Xrotation Yrotation
                      JOINT EyesBlue
                      {
                        OFFSET 0 0 0
                        CHANNELS 6 Xposition Yposition Zposition Zrotation Xrotation Yrotation
                        JOINT EyesBlue_2
                        {
                          OFFSET 0 -0.500007 0
                          CHANNELS 6 Xposition Yposition Zposition Zrotation Xrotation Yrotation
                          End Site
                          {
                            OFFSET 0 0 0
                          }
                        }
                      }
                      JOINT Bip01_Head2_Eyeleds
                      {
                        OFFSET 6.52751 7.61746 2.2e-005
                        CHANNELS 6 Xposition Yposition Zposition Zrotation Xrotation Yrotation
                        End Site
                        {
                          OFFSET 0 0 0
                        }
                      }
                      JOINT Bip01_Head_Muzzle
                      {
                        OFFSET 2.88628 13.9448 3.88994
                        CHANNELS 6 Xposition Yposition Zposition Zrotation Xrotation Yrotation
                        End Site
                        {
                          OFFSET 0 0 0
                        }
                      }
                      JOINT Bip01_Head1_Jaw
                      {
                        OFFSET 0.271065 1.32405 0
                        CHANNELS 6 Xposition Yposition Zposition Zrotation Xrotation Yrotation
                        JOINT _Bip01_Head11_TungeControler
                        {
                          OFFSET 4.61616 5.82872 0
                          CHANNELS 6 Xposition Yposition Zposition Zrotation Xrotation Yrotation
                          JOINT _Bip01_Ponytail3_tunge
                          {
                            OFFSET 5.17785 2.98805 0
                            CHANNELS 6 Xposition Yposition Zposition Zrotation Xrotation Yrotation
                            JOINT Bip01_Ponytail31
                            {
                              OFFSET 5.57569 0 0
                              CHANNELS 6 Xposition Yposition Zposition Zrotation Xrotation Yrotation
                              JOINT Bip01_Ponytail32
                              {
                                OFFSET 2.93165 0 0
                                CHANNELS 6 Xposition Yposition Zposition Zrotation Xrotation Yrotation
                                JOINT Bip01_Ponytail3Nub
                                {
                                  OFFSET 3.30155 0 0
                                  CHANNELS 6 Xposition Yposition Zposition Zrotation Xrotation Yrotation
                                  End Site
                                  {
                                    OFFSET 0 0 0
                                  }
                                }
                              }
                            }
                          }
                        }
                        JOINT Bip01_Head_JawNub
                        {
                          OFFSET 15.5776 -0.000389099 0
                          CHANNELS 6 Xposition Yposition Zposition Zrotation Xrotation Yrotation
                          End Site
                          {
                            OFFSET 0 0 0
                          }
                        }
                      }
                      JOINT Bip01_Ponytail2
                      {
                        OFFSET 9.40334 1.03973 -6.51764
                        CHANNELS 6 Xposition Yposition Zposition Zrotation Xrotation Yrotation
                        JOINT Bip01_Ponytail21
                        {
                          OFFSET 2.77018 -0.00640106 1.33514e-005
                          CHANNELS 6 Xposition Yposition Zposition Zrotation Xrotation Yrotation
                          End Site
                          {
                            OFFSET 0 0 0
                          }
                        }
                      }
                      JOINT Bip01_Ponytail1
                      {
                        OFFSET 9.40368 1.03969 6.51768
                        CHANNELS 6 Xposition Yposition Zposition Zrotation Xrotation Yrotation
                        JOINT Bip01_Ponytail11
                        {
                          OFFSET 2.77018 -0.00640487 0
                          CHANNELS 6 Xposition Yposition Zposition Zrotation Xrotation Yrotation
                          End Site
                          {
                            OFFSET 0 0 0
                          }
                        }
                      }
                    }
                  }
                }
              }
            }
          }
        }
      }
    }
  }
}
MOTION
Frames:	4
Frame Time:	0.0333333
-2e-006 2e-006 0 -0 -90 -0 3e-006 -24.7459 26.3025 90 -1.78867e-005 58.7104 0 0 0 -89.773 3.32598 -93.9075 -6.22529 -4.22869 0.440207 150.508 2.11735 -3.27658 10.3791 -0.007156 0.000142 4.46381 9.40297 2.57759 10.3834 -0.00811 0.000137 38.8195 -3.54891 2.62777 10.3852 -0.008049 -5.98349e-010 22.7623 8.01242 -5.60418 10.3847 -0.008045 5.10003e-005 16.1502 8.11644 -29.1217 1.1e-005 -1.5e-005 -8.75617 -103.628 -27.9441 159.576 19.7638 1.15463e-014 -1e-006 -119.91 0.000315988 -0.00118861 18.6534 3e-006 -2.02505e-013 72.6363 -13.2578 -9.31039 5.09143 13.9567 2.61349e-006 80.0956 3.44714 0.680118 0 0 0 28.5158 1.18691e-005 -2.85333e-006 3.85799 6.21725e-015 0 -45 -2.5951e-005 2.40452e-006 -1.3e-005 1.1e-005 8.75617 -118.794 28.2984 -165.719 19.7638 -1.77636e-015 -3.55271e-015 -118.824 0.000852289 -0.00327031 18.6534 3e-006 -2.07834e-013 56.2699 3.00862 21.0974 5.09143 13.9567 -9.29131e-007 100.756 -2.57973 -2.00853 4.288 -1e-006 1e-006 9.5231 -6.68394e-006 -4.00474e-007 3.85799 4.0945e-013 -3e-006 -45 4.99376e-006 -5.82069e-006 9.11131 0.524552 -0.622128 -2.34131 -0.160376 3.95134 8.04366 -0.006401 1.43678e-010 -0.803448 -0.000715298 0.0540723 8.04366 -0.006401 1.42922e-010 3.47598 0.00332175 0.053975 8.04304 -0.008319 2.04523e-010 16.8315 0.019539 0.0504375 10.67 1.06797 9.5008e-007 -6.80022 7.11344e-006 1.87343e-005 -3.74941 -4.50202 -9.04791 -173.248 -85.4169 114.681 19.0492 3.55272e-014 -3e-006 78.5742 -7.93021 -94.0942 10.3706 -7.10543e-015 -4.44089e-015 -69.9284 9.20618e-006 0.000136064 22.8631 3e-006 8.52651e-014 -11.5933 11.259 10.4818 6.48255 0.103651 0.504495 -78.04 -0.375019 -15.4946 3.66843 8.88179e-016 -5.32907e-015 34.6071 -1.52982e-005 1.69317e-005 -3.74924 -4.502 9.04777 -173.246 85.4167 -114.596 19.0492 -1e-006 -2.84217e-014 78.4556 7.85962 94.4298 10.3706 -7.10543e-015 5.32907e-015 -70.0876 0.000516645 0.00300758 22.8631 1.06581e-014 -1.5099e-014 -11.5091 -11.3665 -10.5597 6.48256 0.103653 -0.504496 -77.9238 0.40727 15.4938 3.66843 2e-006 1e-006 40.107 -5.01421e-006 2.29972e-005 7.52562 -0.006721 2.29414e-010 10.2528 8.17355e-006 -1.84616e-005 8.47686 -0.006458 3.74193e-010 20.8344 9.1635e-006 -5.38052e-005 8.41604 1.42109e-014 -7.49401e-016 -85.0679 0.15448 -0.0455349 -7e-006 1e-006 -3e-006 -23.1098 1.37701e-015 90 -1.42806e-008 -0.500004 -5.29347e-006 -73.839 90 163.839 0 0 0 -113.549 1.52588e-005 -180 2.88629 13.9448 3.88993 -22.9892 1.37021e-015 90 0 0 0 -83.9884 7.01671e-015 -180 0 0 0 -115.653 -3.86562e-006 -1.74734e-005 0 0 0 128.433 0.379477 -1.02194 0 0 0 2.05667 1.08075e-005 2.71067e-007 0 0 0 -20.491 -1.64777e-005 -6.42563e-006 0 0 0 -26.1943 -2.53611e-007 -3.16348e-007 15.5776 -0.000396 -7.00002e-006 3.18055e-015 0 -3.72721e-017 9.40318 1.03993 -6.51742 -7.58198 -14.5642 20.0502 2.77017 -0.006404 -5.17023e-010 2.43506 4.79406e-007 -1.7537e-005 9.40358 1.03974 6.51765 -7.58331 14.5671 -20.0468 2.77017 -0.006412 -9.99361e-007 2.43506 -3.49871e-007 -1.70586e-005 
-2e-006 2e-006 0 -0 -90 -0 3e-006 -24.7459 26.3025 90 -1.78867e-005 58.71 0 0 0 -89.7596 3.51827 -93.9073 -6.2111 -4.24954 0.440207 150.7 2.11702 -3.27686 10.3791 -0.007156 0.000142 3.74104 9.36996 2.69592 10.3834 -0.00811 0.000137 39.7406 -3.50571 2.68406 10.3852 -0.008049 -6.01505e-010 22.7623 8.01242 -5.60418 10.3847 -0.008045 5.10003e-005 16.1498 8.11569 -30.0884 1.1e-005 -1.5e-005 -8.75617 -103.487 -27.9538 159.568 19.7638 1.33227e-014 -1e-006 -119.862 0.000315448 -0.00118858 18.6534 3e-006 -2.06057e-013 72.6613 -13.2819 -9.31187 5.09143 13.9567 2.61269e-006 79.9773 3.4468 0.680219 0 0 0 28.5158 1.18561e-005 -2.84968e-006 3.85799 -8.88179e-016 -3.55271e-015 -45 -2.59423e-005 2.40895e-006 -1.3e-005 1.1e-005 8.75617 -118.584 28.3073 -165.731 19.7638 3.55271e-015 -1.77636e-015 -118.702 0.000848205 -0.00327052 18.6534 3e-006 -2.0961e-013 56.298 3.05899 21.0964 5.09143 13.9567 -9.28917e-007 100.613 -2.57982 -2.00861 4.288 -1e-006 1e-006 9.5231 -6.6838e-006 -4.00553e-007 3.85799 4.17444e-013 -3e-006 -45 4.99426e-006 -5.82046e-006 9.10953 0.555124 -0.622128 -2.29793 -0.15738 3.95146 8.04366 -0.006401 1.42849e-010 -0.803735 -0.000715568 0.0540723 8.04366 -0.006401 1.42109e-010 3.47598 0.00332175 0.053975 8.04304 -0.008319 2.03269e-010 17.0468 0.0197284 0.0503637 10.67 1.06797 9.50012e-007 -6.80022 7.11031e-006 1.87339e-005 -3.74941 -4.50202 -9.04791 -173.245 -85.4172 114.882 19.0492 3.90799e-014 -3e-006 78.2713 -7.54604 -93.7227 10.3706 7.10543e-015 1.15463e-014 -69.3411 1.05372e-005 0.000136123 22.8631 3e-006 7.54952e-014 -11.4762 11.7928 10.7073 6.48255 0.103651 0.504495 -78.1758 -0.337347 -15.4955 3.66843 3.24185e-014 -1.77636e-015 34.6071 -1.53775e-005 1.70095e-005 -3.74924 -4.502 9.04777 -173.245 85.4169 -114.848 19.0492 -1e-006 -1.42109e-014 78.1532 7.47703 94.0572 10.3706 0 -1.77636e-015 -69.3998 0.000535961 0.0030071 22.8631 -7.10543e-015 -3.55271e-015 -11.4559 -11.9105 -10.7911 6.48256 0.103653 -0.504496 -78.1183 0.35335 15.4951 3.66843 2e-006 1e-006 40.107 -5.19703e-006 2.31164e-005 7.52562 -0.006721 2.29469e-010 10.2528 8.18078e-006 -1.84615e-005 8.47686 -0.006458 3.7506e-010 20.8345 9.23626e-006 -5.38025e-005 8.41604 -2.13163e-014 -5.55112e-017 -84.7835 0.154443 -0.0463187 -7e-006 1e-006 -3e-006 -23.1098 1.37701e-015 90 -1.42488e-008 -0.500004 -5.29337e-006 -73.7632 90 163.763 0 0 0 -113.549 1.52588e-005 -180 2.88629 13.9448 3.88993 -22.9892 1.37021e-015 90 0 0 0 -84.6588 7.01671e-015 -180 0 0 0 -117.96 -3.21459e-006 -1.75306e-005 0 0 0 131.071 0.190684 -0.51349 0 0 0 0.949632 1.01331e-006 -1.24085e-008 0 0 0 -21.5561 -8.86685e-007 -9.72585e-008 0 0 0 -26.1943 2.37253e-007 2.82722e-007 15.5776 -0.000396 -7.00002e-006 -4.84926e-035 3.72721e-017 7.45443e-017 9.40318 1.03993 -6.51742 -7.61406 -14.4764 20.0418 2.77017 -0.006404 -5.16103e-010 2.43506 4.79241e-007 -1.75367e-005 9.40358 1.03974 6.51765 -7.61578 14.4791 -20.0384 2.77017 -0.006412 -9.99362e-007 2.43506 -3.48252e-007 -1.70592e-005 
-2e-006 2e-006 0 -0 -90 -0 3e-006 -24.7459 26.3025 90 -1.78867e-005 58.7096 0 0 0 -89.7594 3.52333 -93.9072 -6.21074 -4.25007 0.440207 150.705 2.11665 -3.27645 10.3791 -0.007156 0.000142 3.774 9.37168 2.69072 10.3834 -0.00811 0.000137 39.6987 -3.50709 2.68098 10.3852 -0.008049 -6.0138e-010 22.7623 8.01242 -5.60418 10.3847 -0.008045 5.10003e-005 16.1502 8.11582 -30.0446 1.1e-005 -1.5e-005 -8.75617 -103.482 -27.9537 159.568 19.7638 1.33227e-014 -1e-006 -119.861 0.000315446 -0.00118857 18.6534 3e-006 -2.02505e-013 72.6611 -13.2821 -9.31175 5.09143 13.9567 2.61267e-006 79.977 3.44683 0.680392 0 0 0 28.5158 1.18571e-005 -2.84998e-006 3.85799 2.66454e-015 0 -45 -2.59429e-005 2.40867e-006 -1.3e-005 1.1e-005 8.75617 -118.579 28.3077 -165.732 19.7638 1.77636e-015 -7.10543e-015 -118.702 0.000848499 -0.00327036 18.6534 3e-006 -2.11386e-013 56.298 3.0597 21.0968 5.09143 13.9567 -9.28903e-007 100.613 -2.57979 -2.00885 4.288 -1e-006 1e-006 9.5231 -6.68384e-006 -4.00584e-007 3.85799 4.13447e-013 -3e-006 -45 4.99439e-006 -5.82029e-006 9.10948 0.555927 -0.622128 -2.29686 -0.157306 3.95147 8.04366 -0.006401 1.42822e-010 -0.804021 -0.000715838 0.0540723 8.04366 -0.006401 1.42088e-010 3.47598 0.00332175 0.053975 8.04304 -0.008319 2.0323e-010 17.1251 0.0197972 0.0503367 10.67 1.06797 9.49809e-007 -6.80022 7.105e-006 1.87326e-005 -3.74941 -4.50202 -9.04791 -173.245 -85.4167 114.883 19.0492 3.37508e-014 -3e-006 78.2701 -7.53704 -93.7208 10.3706 7.10543e-015 -4.44089e-015 -69.3315 1.05627e-005 0.000136123 22.8631 3e-006 7.54952e-014 -11.4756 11.7956 10.7079 6.48255 0.103651 0.504495 -78.3091 -0.300406 -15.4962 3.66843 -2.57572e-014 1.77636e-015 34.6071 -1.53467e-005 1.69721e-005 -3.74924 -4.502 9.04777 -173.245 85.417 -114.848 19.0492 -1e-006 -7.10543e-015 78.1527 7.46768 94.0552 10.3706 7.10543e-015 1.77636e-015 -69.3899 0.000536444 0.00300702 22.8631 0 3.55271e-015 -11.4559 -11.9127 -10.7927 6.48256 0.103653 -0.504496 -78.3091 0.300452 15.4962 3.66843 2e-006 1e-006 40.107 -4.90913e-006 2.29198e-005 7.52562 -0.006721 2.30112e-010 10.2528 8.19248e-006 -1.84605e-005 8.47686 -0.006458 3.76988e-010 20.8346 9.29097e-006 -5.37964e-005 8.41604 4.26326e-014 -3.13638e-015 -84.7758 0.154464 -0.046342 -7e-006 1e-006 -3e-006 -23.1098 1.37701e-015 90 -1.42436e-008 -0.500004 -5.29335e-006 -73.7457 90 163.746 0 0 0 -113.549 1.52588e-005 -180 2.88629 13.9448 3.88993 -22.9892 1.37021e-015 90 0 0 0 -85.3358 -3.24611e-014 -180 0 0 0 -120.289 -2.58556e-006 -1.75147e-005 0 0 0 133.74 -3.55799e-005 3.86251e-006 0 0 0 -0.168468 7.94361e-007 4.50665e-008 0 0 0 -22.6319 1.15418e-005 5.5923e-006 0 0 0 -26.1943 6.32587e-007 8.26243e-007 15.5776 -0.000396 -7.00002e-006 3.18055e-015 -1.55301e-016 -0 9.40318 1.03993 -6.51742 -7.63418 -14.4014 20.0221 2.77017 -0.006404 -5.13879e-010 2.43506 4.79392e-007 -1.75358e-005 9.40358 1.03974 6.51765 -7.63443 14.4037 -20.0195 2.77017 -0.006412 -9.99364e-007 2.43506 -3.47155e-007 -1.70599e-005 
-2e-006 2e-006 0 -0 -90 -0 3e-006 -24.7459 26.3025 90 -1.78867e-005 58.7091 0 0 0 -89.7719 3.34462 -93.9075 -6.22395 -4.23071 0.440207 150.526 2.11658 -3.2763 10.3791 -0.007156 0.000142 4.51949 9.40548 2.56851 10.3834 -0.00811 0.000137 38.7487 -3.55082 2.62263 10.3852 -0.008049 -5.98115e-010 22.7623 8.01242 -5.60418 10.3847 -0.008045 5.10003e-005 16.151 8.11633 -29.0474 1.1e-005 -1.5e-005 -8.75617 -103.614 -27.9455 159.575 19.7638 1.33227e-014 -1e-006 -119.906 0.000316041 -0.00118855 18.6534 3e-006 -2.02505e-013 72.6375 -13.26 -9.30993 5.09143 13.9567 2.61339e-006 80.0859 3.44706 0.680432 0 0 0 28.5158 1.18684e-005 -2.85331e-006 3.85799 4.44089e-015 -1.77636e-015 -45 -2.59504e-005 2.40498e-006 -1.3e-005 1.1e-005 8.75617 -118.774 28.2994 -165.721 19.7638 -3.55271e-015 0 -118.814 0.000852087 -0.00327025 18.6534 3e-006 -2.06057e-013 56.2718 3.01269 21.0983 5.09143 13.9567 -9.29102e-007 100.744 -2.58005 -2.00909 4.288 -1e-006 1e-006 9.5231 -6.68353e-006 -4.00577e-007 3.85799 4.11449e-013 -3e-006 -45 4.99415e-006 -5.82054e-006 9.11112 0.527532 -0.622128 -2.33741 -0.160107 3.95135 8.04366 -0.006401 1.43587e-010 -0.804307 -0.000716108 0.0540723 8.04366 -0.006401 1.42832e-010 3.47598 0.00332175 0.053975 8.04304 -0.008319 2.04384e-010 17.046 0.0197277 0.050364 10.67 1.06797 9.49538e-007 -6.80022 7.0992e-006 1.87308e-005 -3.74941 -4.50202 -9.04791 -173.246 -85.4166 114.701 19.0492 3.19744e-014 -3e-006 78.5484 -7.89456 -94.0616 10.3706 1.06581e-014 -3.55271e-015 -69.8748 9.33569e-006 0.000136074 22.8631 3e-006 8.26006e-014 -11.5837 11.3045 10.5011 6.48255 0.103651 0.504495 -78.1745 -0.337712 -15.4955 3.66843 -1.77636e-014 -1.77636e-015 34.6071 -1.53573e-005 1.69844e-005 -3.74924 -4.502 9.04777 -173.247 85.4169 -114.615 19.0492 -1e-006 -2.13163e-014 78.4309 7.82406 94.3974 10.3706 -3.55271e-015 -8.88178e-015 -70.0257 0.000518417 0.00300753 22.8631 -3.55271e-015 5.32907e-015 -11.5051 -11.4122 -10.5801 6.48256 0.103653 -0.504496 -78.1164 0.353875 15.4951 3.66843 2e-006 1e-006 40.107 -4.99353e-006 2.29824e-005 7.52562 -0.006721 2.31129e-010 10.2528 8.20492e-006 -1.8459e-005 8.47686 -0.006458 3.7935e-010 20.8347 9.31155e-006 -5.3789e-005 8.41604 7.10543e-015 2.08167e-015 -85.04 0.154485 -0.0456127 -7e-006 1e-006 -3e-006 -23.1098 1.37701e-015 90 -1.42661e-008 -0.500004 -5.2934e-006 -73.7891 90 163.789 0 0 0 -113.549 1.52588e-005 -180 2.88629 13.9448 3.88993 -22.9892 1.37021e-015 90 0 0 0 -84.6702 -7.01671e-015 -180 0 0 0 -117.999 -3.21716e-006 -1.75072e-005 0 0 0 131.116 0.187469 -0.504835 0 0 0 0.0294691 1.95325e-008 -4.49145e-010 0 0 0 -22.846 1.60334e-007 3.31514e-007 0 0 0 -26.1943 2.21805e-007 2.76564e-007 15.5776 -0.000396 -7.00002e-006 -3.18055e-015 -1.86361e-017 6.21202e-017 9.40318 1.03993 -6.51742 -7.66908 -14.2291 19.9633 2.77017 -0.006404 -5.05981e-010 2.3867 -0.0306491 0.0415708 9.40358 1.03974 6.51765 -7.66851 14.2313 -19.9608 2.77017 -0.006412 -9.9937e-007 2.3867 0.0306496 -0.041573 
